<svg aria-label="Failed state points over time" class="failed-chart goal-reached" data-domain-max="1767269160000" data-domain-min="1767268800000" data-plot-bottom="200" data-plot-left="0" data-plot-right="640" data-plot-top="0" data-time-scale="compact" id="progress-chart" viewBox="0 0 640 200"><line class="grid-line" x1="0" x2="604" y1="160" y2="160"></line><rect class="label-backdrop" height="16" width="44" x="0" y="152"></rect><text class="axis-label y-axis-label" dominant-baseline="central" text-anchor="end" x="636" y="160">4</text><line class="grid-line" x1="0" x2="604" y1="120" y2="120"></line><rect class="label-backdrop" height="16" width="44" x="0" y="112"></rect><text class="axis-label y-axis-label" dominant-baseline="central" text-anchor="end" x="636" y="120">8</text><line class="grid-line" x1="0" x2="604" y1="80" y2="80"></line><rect class="label-backdrop" height="16" width="44" x="0" y="72"></rect><text class="axis-label y-axis-label" dominant-baseline="central" text-anchor="end" x="636" y="80">13</text><line class="grid-line" x1="0" x2="604" y1="40" y2="40"></line><rect class="label-backdrop" height="16" width="44" x="0" y="32"></rect><text class="axis-label y-axis-label" dominant-baseline="central" text-anchor="end" x="636" y="40">17</text><path class="failed-fields-pass-area" d="M 0.0 9.5 L 320.0 9.5 L 320.0 152.4 L 640.0 152.4 L 640.0 200.0 L 640.0 0.0 L 0.0 0.0 Z"></path><line class="grid-line x-grid-line" x1="128" x2="128" y1="0" y2="178"></line><line class="grid-line x-grid-line" x1="256" x2="256" y1="0" y2="178"></line><line class="grid-line x-grid-line" x1="384" x2="384" y1="0" y2="178"></line><line class="grid-line x-grid-line" x1="512" x2="512" y1="0" y2="178"></line><path class="failed-fields-area" d="M 0.0 9.5 L 320.0 9.5 L 320.0 152.4 L 640.0 152.4 L 640.0 200.0 L 640.0 200.0 L 0.0 200.0 Z"></path><path class="failed-total-percent-line" d="M 0.0 196.0 L 320.0 196.0 L 320.0 199.0 L 640.0 199.0 L 640.0 200.0"><title>Failed total: 0%</title></path><g class="failed-run-marker-tick-layer"><line class="failed-run-tick" x1="320.0" x2="320.0" y1="143.4" y2="200.0"><title>12:03 · improved fixture</title></line></g><path class="failed-fields-line" d="M 0.0 9.5 L 320.0 9.5 L 320.0 152.4 L 640.0 152.4 L 640.0 200.0"><title>Failed state points: 0 / 10 frames (0.0% of 1000 active points); failed fields: 0/100</title></path><text class="axis-label" text-anchor="middle" x="128" y="194">12:01</text><text class="axis-label" text-anchor="middle" x="256" y="194">12:02</text><text class="axis-label" text-anchor="middle" x="384" y="194">12:03</text><text class="axis-label" text-anchor="middle" x="512" y="194">12:04</text><g class="failed-run-marker-layer"><g class="failed-run-marker-improved-layer"><text class="failed-run-marker improved" x="320.0" y="143.4">▼<title>12:03 · improved fixture</title></text><text class="failed-run-marker improved" x="640.0" y="191.0">▼<title>12:06 · improved fixture</title></text></g></g></svg>
