<svg aria-label="Failed state points over time" class="range-zoomable failed-chart" data-domain-max="1767268830000" data-domain-min="1767268800000" data-plot-bottom="200" data-plot-left="0" data-plot-right="640" data-plot-top="0" data-time-scale="all" id="progress-chart" viewBox="0 0 640 200"><line class="grid-line" x1="0" x2="604" y1="160" y2="160"></line><rect class="label-backdrop" height="16" width="44" x="0" y="152"></rect><text class="axis-label y-axis-label" dominant-baseline="central" text-anchor="end" x="636" y="160">21</text><line class="grid-line" x1="0" x2="604" y1="120" y2="120"></line><rect class="label-backdrop" height="16" width="44" x="0" y="112"></rect><text class="axis-label y-axis-label" dominant-baseline="central" text-anchor="end" x="636" y="120">42</text><line class="grid-line" x1="0" x2="604" y1="80" y2="80"></line><rect class="label-backdrop" height="16" width="44" x="0" y="72"></rect><text class="axis-label y-axis-label" dominant-baseline="central" text-anchor="end" x="636" y="80">63</text><line class="grid-line" x1="0" x2="604" y1="40" y2="40"></line><rect class="label-backdrop" height="16" width="44" x="0" y="32"></rect><text class="axis-label y-axis-label" dominant-baseline="central" text-anchor="end" x="636" y="40">84</text><line class="grid-line x-grid-line" x1="128" x2="128" y1="0" y2="178"></line><text class="axis-label" text-anchor="middle" x="128" y="194">12:00</text><line class="grid-line x-grid-line" x1="256" x2="256" y1="0" y2="178"></line><text class="axis-label" text-anchor="middle" x="256" y="194">12:00</text><line class="grid-line x-grid-line" x1="384" x2="384" y1="0" y2="178"></line><text class="axis-label" text-anchor="middle" x="384" y="194">12:00</text><line class="grid-line x-grid-line" x1="512" x2="512" y1="0" y2="178"></line><text class="axis-label" text-anchor="middle" x="512" y="194">12:00</text></svg>
