<svg aria-label="Failed state points over time" class="failed-chart" data-domain-max="1767269280000" data-domain-min="1767268800000" data-plot-bottom="200" data-plot-left="0" data-plot-right="640" data-plot-top="0" data-time-scale="compact" id="progress-chart" viewBox="0 0 640 200"><line class="grid-line" x1="0" x2="604" y1="160" y2="160"></line><rect class="label-backdrop" height="16" width="44" x="0" y="152"></rect><text class="axis-label y-axis-label" dominant-baseline="central" text-anchor="end" x="636" y="160">1</text><line class="grid-line" x1="0" x2="604" y1="120" y2="120"></line><rect class="label-backdrop" height="16" width="44" x="0" y="112"></rect><text class="axis-label y-axis-label" dominant-baseline="central" text-anchor="end" x="636" y="120">1</text><line class="grid-line" x1="0" x2="604" y1="80" y2="80"></line><rect class="label-backdrop" height="16" width="44" x="0" y="72"></rect><text class="axis-label y-axis-label" dominant-baseline="central" text-anchor="end" x="636" y="80">2</text><line class="grid-line" x1="0" x2="604" y1="40" y2="40"></line><rect class="label-backdrop" height="16" width="44" x="0" y="32"></rect><text class="axis-label y-axis-label" dominant-baseline="central" text-anchor="end" x="636" y="40">2</text><path class="failed-fields-pass-area" d="M 0.0 133.3 L 160.0 133.3 L 160.0 133.3 L 480.0 133.3 L 480.0 133.3 L 640.0 133.3 L 640.0 66.7 L 640.0 0.0 L 0.0 0.0 Z"></path><line class="grid-line x-grid-line" x1="128" x2="128" y1="0" y2="178"></line><line class="grid-line x-grid-line" x1="256" x2="256" y1="0" y2="178"></line><line class="grid-line x-grid-line" x1="384" x2="384" y1="0" y2="178"></line><line class="grid-line x-grid-line" x1="512" x2="512" y1="0" y2="178"></line><path class="failed-fields-area" d="M 0.0 133.3 L 160.0 133.3 L 160.0 133.3 L 480.0 133.3 L 480.0 133.3 L 640.0 133.3 L 640.0 66.7 L 640.0 200.0 L 0.0 200.0 Z"></path><path class="failed-total-percent-line" d="M 0.0 199.8 L 160.0 199.8 L 160.0 199.8 L 480.0 199.8 L 480.0 199.8 L 640.0 199.8 L 640.0 199.6"><title>Failed total: 0.2%</title></path><g class="failed-run-marker-tick-layer"><line class="failed-run-tick muted" x1="160.0" x2="160.0" y1="133.3" y2="200.0"><title>12:02 · fixture run</title></line><line class="failed-run-tick muted" x1="480.0" x2="480.0" y1="133.3" y2="200.0"><title>12:06 · reverted fixture</title></line></g><path class="failed-fields-line" d="M 0.0 133.3 L 160.0 133.3 L 160.0 133.3 L 480.0 133.3 L 480.0 133.3 L 640.0 133.3 L 640.0 66.7"><title>Failed state points: 2 / 10 frames (0.2% of 1000 active points); failed fields: 1/100</title></path><text class="axis-label" text-anchor="middle" x="128" y="194">12:01</text><text class="axis-label" text-anchor="middle" x="256" y="194">12:03</text><text class="axis-label" text-anchor="middle" x="384" y="194">12:04</text><text class="axis-label" text-anchor="middle" x="512" y="194">12:06</text><g class="failed-run-marker-layer"><g class="failed-run-marker-plain-layer"><text class="failed-run-marker worsened" x="640.0" y="75.7">▲<title>12:08 · worsened fixture</title></text></g></g></svg>
