<svg aria-label="Current-run overall frame deviation residual normalized by a 31-frame rolling standard deviation" class="delta-chart" id="progress-chart" viewBox="0 0 640 200"><rect class="frame-delta-pass-band" height="200" width="67.4" x="0.0" y="0"></rect><rect class="frame-delta-fail-band" height="200" width="572.6" x="67.4" y="0"></rect><line class="grid-line" x1="0" x2="598" y1="144.0" y2="144.0"></line><text class="axis-label y-axis-label" dominant-baseline="central" text-anchor="end" x="636" y="144.0">-1.688</text><text class="axis-label y-axis-label" dominant-baseline="central" text-anchor="end" x="636" y="100.0">0</text><line class="grid-line" x1="0" x2="598" y1="56.0" y2="56.0"></line><text class="axis-label y-axis-label" dominant-baseline="central" text-anchor="end" x="636" y="56.0">1.688</text><line class="grid-line x-grid-line" x1="67.4" x2="67.4" y1="16" y2="200"></line><text class="axis-label" text-anchor="middle" x="67.4" y="13">2</text><line class="grid-line x-grid-line" x1="202.1" x2="202.1" y1="16" y2="200"></line><text class="axis-label" text-anchor="middle" x="202.1" y="13">6</text><line class="grid-line x-grid-line" x1="336.8" x2="336.8" y1="16" y2="200"></line><text class="axis-label" text-anchor="middle" x="336.8" y="13">10</text><line class="grid-line x-grid-line" x1="471.6" x2="471.6" y1="16" y2="200"></line><text class="axis-label" text-anchor="middle" x="471.6" y="13">14</text><line class="grid-line x-grid-line" x1="606.3" x2="606.3" y1="16" y2="200"></line><text class="axis-label" text-anchor="middle" x="606.3" y="13">18</text><line class="delta-zero-line" x1="0" x2="626.0" y1="100.0" y2="100.0"></line><path class="frame-delta-line-pass" d="M0.0,100.0L33.7,100.0"></path><path class="frame-delta-line-fail" d="M33.7,100.0L67.4,100.0 M67.4,100.0L101.1,47.9 M101.1,47.9L134.7,131.9 M134.7,131.9L168.4,39.8 M168.4,39.8L202.1,100.0 M202.1,100.0L235.8,100.1 M235.8,100.1L269.5,33.0 M269.5,33.0L303.2,100.0 M303.2,100.0L336.8,100.0 M336.8,100.0L370.5,100.1 M370.5,100.1L404.2,24.1 M404.2,24.1L437.9,100.0 M437.9,100.0L471.6,100.0 M471.6,100.0L505.3,100.1 M505.3,100.1L538.9,100.0 M538.9,100.0L572.6,100.0 M572.6,100.0L606.3,100.0 M606.3,100.0L640.0,100.0"></path><text class="axis-label first-failing-frame-percent-label" text-anchor="end" x="63.4" y="196.0">10%</text><text class="axis-label first-failing-frame-label" text-anchor="start" x="71.4" y="196.0">2</text></svg>
