<svg aria-label="Current-run overall frame deviation residual normalized by a 31-frame rolling standard deviation" class="delta-chart" id="progress-chart" viewBox="0 0 640 200"><rect class="frame-delta-pass-band" height="200" width="182.9" x="0.0" y="0"></rect><rect class="frame-delta-fail-band" height="200" width="457.1" x="182.9" y="0"></rect><line class="grid-line" x1="0" x2="598" y1="144.0" y2="144.0"></line><text class="axis-label y-axis-label" dominant-baseline="central" text-anchor="end" x="636" y="144.0">-1.16</text><text class="axis-label y-axis-label" dominant-baseline="central" text-anchor="end" x="636" y="100.0">0</text><line class="grid-line" x1="0" x2="598" y1="56.0" y2="56.0"></line><text class="axis-label y-axis-label" dominant-baseline="central" text-anchor="end" x="636" y="56.0">1.16</text><line class="grid-line x-grid-line" x1="91.4" x2="91.4" y1="16" y2="200"></line><text class="axis-label" text-anchor="middle" x="91.4" y="13">1</text><line class="grid-line x-grid-line" x1="274.3" x2="274.3" y1="16" y2="200"></line><text class="axis-label" text-anchor="middle" x="274.3" y="13">3</text><line class="grid-line x-grid-line" x1="457.1" x2="457.1" y1="16" y2="200"></line><text class="axis-label" text-anchor="middle" x="457.1" y="13">5</text><line class="delta-zero-line" x1="0" x2="626.0" y1="100.0" y2="100.0"></line><path class="frame-delta-line-pass" d="M0.0,100.0L91.4,100.0"></path><path class="frame-delta-line-fail" d="M91.4,100.0L182.9,100.0 M182.9,100.0L274.3,24.1 M274.3,24.1L365.7,160.8 M365.7,160.8L457.1,83.3 M457.1,83.3L548.6,135.2 M548.6,135.2L640.0,100.0"></path><text class="axis-label first-failing-frame-percent-label" text-anchor="end" x="178.9" y="196.0">25%</text><text class="axis-label first-failing-frame-label" text-anchor="start" x="186.9" y="196.0">2</text></svg>
