<svg aria-label="Completion percentage over time" data-domain-max="1700000000000" data-domain-min="1700000000000" data-plot-bottom="200" data-plot-left="0" data-plot-right="640" data-plot-top="0" data-time-scale="compact" id="progress-chart" viewBox="0 0 640 200"><line class="grid-line" x1="0" x2="640" y1="200" y2="200"></line><line class="grid-line" x1="0" x2="640" y1="150" y2="150"></line><rect class="label-backdrop" height="16" width="44" x="0" y="142"></rect><text class="axis-label y-axis-label" dominant-baseline="central" text-anchor="start" x="4" y="150">25%</text><line class="grid-line" x1="0" x2="640" y1="100" y2="100"></line><rect class="label-backdrop" height="16" width="44" x="0" y="92"></rect><text class="axis-label y-axis-label" dominant-baseline="central" text-anchor="start" x="4" y="100">50%</text><line class="grid-line" x1="0" x2="640" y1="50" y2="50"></line><rect class="label-backdrop" height="16" width="44" x="0" y="42"></rect><text class="axis-label y-axis-label" dominant-baseline="central" text-anchor="start" x="4" y="50">75%</text><line class="grid-line" x1="0" x2="640" y1="0" y2="0"></line><rect class="label-backdrop" height="16" width="44" x="0" y="0"></rect><text class="axis-label y-axis-label" dominant-baseline="central" text-anchor="start" x="4" y="8">100%</text><line class="grid-line x-grid-line" x1="128" x2="128" y1="0" y2="178"></line><line class="grid-line x-grid-line" x1="256" x2="256" y1="0" y2="178"></line><line class="grid-line x-grid-line" x1="384" x2="384" y1="0" y2="178"></line><line class="grid-line x-grid-line" x1="512" x2="512" y1="0" y2="178"></line><path class="progress-area" d="M 0.0 200.0 L 0.0 200.0 L 0.0 200.0 Z"></path><path class="progress-line" d="M 0.0 200.0"></path><circle class="progress-dot" cx="0" cy="200" r="4"></circle><text class="axis-label" text-anchor="middle" x="128" y="194">22:13</text><text class="axis-label" text-anchor="middle" x="256" y="194">22:13</text><text class="axis-label" text-anchor="middle" x="384" y="194">22:13</text><text class="axis-label" text-anchor="middle" x="512" y="194">22:13</text></svg>
